<?xml version="1.0" encoding="UTF-8"?>
<svg width="436px" height="117px" viewBox="0 0 436 117" version="1.1" xmlns="http://www.w3.org/2000/svg" xmlns:xlink="http://www.w3.org/1999/xlink">
    <!-- Generator: Sketch 42 (36781) - http://www.bohemiancoding.com/sketch -->
    <title>Group</title>
    <desc>Created with Sketch.</desc>
    <defs></defs>
    <g id="Page-1" stroke="none" stroke-width="1" fill="none" fill-rule="evenodd">
        <g id="Desktop-HD" transform="translate(-501.000000, -454.000000)">
            <g id="Group" transform="translate(501.000000, 454.000000)">
                <rect id="Rectangle" fill="#1EC896" x="0.766" y="0.624" width="60.332" height="115.952"></rect>
                <path d="M31.292,8.2 C46.556,8.2 54.332,15.4 54.332,29.512 L54.332,45.352 C54.332,59.464 46.556,66.664 31.292,66.664 L15.308,66.664 L15.308,109 L7.532,109 L7.532,8.2 L31.292,8.2 Z M46.556,42.76 L46.556,32.104 C46.556,20.152 42.092,15.4 30.716,15.4 L15.308,15.4 L15.308,59.464 L30.716,59.464 C42.092,59.464 46.556,54.712 46.556,42.76 Z M119.852,109 L111.5,109 L94.94,65.512 L77.372,65.512 L77.372,109 L69.596,109 L69.596,8.2 L93.356,8.2 C108.62,8.2 116.396,15.4 116.396,29.512 L116.396,44.2 C116.396,55.144 111.788,61.912 102.572,64.36 L119.852,109 Z M92.78,58.456 C104.156,58.456 108.62,53.56 108.62,41.752 L108.62,32.104 C108.62,20.152 104.156,15.4 92.78,15.4 L77.372,15.4 L77.372,58.456 L92.78,58.456 Z M174.572,109 L174.572,101.8 L142.316,101.8 L142.316,61.48 L169.676,61.48 L169.676,54.28 L142.316,54.28 L142.316,15.4 L174.14,15.4 L174.14,8.2 L134.54,8.2 L134.54,109 L174.572,109 Z M232.172,43.048 L232.172,27.784 C232.172,13.96 223.532,7.048 209.708,7.048 L209.42,7.048 C195.596,7.048 186.956,13.96 186.956,27.784 L186.956,39.448 C186.956,47.512 190.556,51.4 198.908,56.152 L214.028,64.36 C221.66,68.68 224.684,71.272 224.684,78.76 L224.684,86.824 C224.684,97.768 220.652,103.096 209.708,103.096 C198.764,103.096 194.732,97.768 194.732,86.824 L194.732,72.712 L186.956,72.712 L186.956,89.128 C186.956,103.672 194.3,110.152 209.564,110.152 L209.852,110.152 C225.116,110.152 232.46,103.528 232.46,89.128 L232.46,76.168 C232.46,68.536 227.42,62.92 220.364,59.176 L204.956,50.68 C197.324,46.648 194.732,44.632 194.732,37.144 L194.732,30.088 C194.732,19 198.764,14.104 209.564,14.104 C220.364,14.104 224.396,19 224.396,30.088 L224.396,43.048 L232.172,43.048 Z M287.468,8.2 L241.676,8.2 L241.676,15.4 L260.684,15.4 L260.684,109 L268.46,109 L268.46,15.4 L287.468,15.4 L287.468,8.2 Z M307.916,109 L307.916,8.2 L300.14,8.2 L300.14,109 L307.916,109 Z M335.132,109 L335.132,26.056 L368.54,109 L376.172,109 L376.172,8.2 L368.684,8.2 L368.684,90.568 L335.708,8.2 L327.644,8.2 L327.644,109 L335.132,109 Z M435.212,109 L435.212,101.8 L402.956,101.8 L402.956,61.48 L430.316,61.48 L430.316,54.28 L402.956,54.28 L402.956,15.4 L434.78,15.4 L434.78,8.2 L395.18,8.2 L395.18,109 L435.212,109 Z" id="PRESTINE" fill="#E6E6E6"></path>
            </g>
        </g>
    </g>
</svg>